G04 ===== Begin FILE IDENTIFICATION =====*
G04 File Format:  Gerber RS274X*
G04 ===== End FILE IDENTIFICATION =====*
%FSLAX34Y34*%
%MOMM*%
%SFA1.0000B1.0000*%
%OFA0.0B0.0*%
%ADD10C,0.025000*%
%LNpc3*%
%IPPOS*%
%LPD*%
G75*
G36*
G01X244288Y-1486688D02*
G01X244835Y-1488441D01*
G01X246339Y-1489061D01*
G01X247415Y-1488727D01*
G01X248028Y-1487816D01*
G01X248621Y-1488587D01*
G01X249503Y-1488871D01*
G01X250919Y-1488287D01*
G01X251397Y-1486546D01*
G01Y-1484222D01*
G01X248365D01*
G01Y-1485160D01*
G01X250631D01*
G01Y-1486546D01*
G01X250364Y-1487586D01*
G01X249510Y-1487928D01*
G01X248673Y-1487560D01*
G01X248365Y-1486576D01*
G01Y-1485160D01*
G01Y-1484222D01*
G01X245055D01*
G01Y-1485160D01*
G01X247613D01*
G01Y-1486722D01*
G01X246329Y-1488119D01*
G01X245394Y-1487740D01*
G01X245055Y-1486708D01*
G01Y-1485160D01*
G01Y-1484222D01*
G01X244288D01*
G01Y-1486688D01*
G37*
G36*
G01X251397Y-1491658D02*
G01X245597Y-1493982D01*
G01X251397Y-1496307D01*
G01Y-1497522D01*
G01X244288D01*
G01Y-1496585D01*
G01X247057D01*
G01X250045Y-1496673D01*
G01X244288Y-1494339D01*
G01Y-1493621D01*
G01X250030Y-1491292D01*
G01X247057Y-1491385D01*
G01X244288D01*
G01Y-1490447D01*
G01X251397D01*
G01Y-1491658D01*
G37*
G36*
G01X-521899Y76079D02*
G01Y191660D01*
G01X-846274D01*
G01Y-1510001D01*
G01X-11192D01*
G01Y-1459683D01*
G01X-12842Y-1454683D01*
G01Y-1435494D01*
G01X-7042Y-1425494D01*
G01Y-1400823D01*
G01X-5742D01*
G01Y-1385823D01*
G01X12258D01*
G01Y-1395823D01*
G01X27558D01*
G01Y-1385823D01*
G01X45558D01*
G01Y-1395823D01*
G01X62227D01*
G01X72527Y-1393523D01*
G01X72916D01*
G01X73847Y-1386445D01*
G01Y-1373641D01*
G01X91847D01*
G01Y-1386445D01*
G01X92778Y-1393523D01*
G01X94735D01*
G01X97385Y-1382770D01*
G01Y-1371134D01*
G01X111385D01*
G01Y-1382770D01*
G01X114035Y-1393523D01*
G01X115258D01*
G01X117079Y-1383116D01*
G01Y-1370376D01*
G01X133079D01*
G01Y-1383116D01*
G01X134900Y-1393523D01*
G01X216454D01*
G01Y-614267D01*
G01X145420D01*
G01Y-613306D01*
G01X141010Y-611589D01*
G01X128561D01*
G01Y-596589D01*
G01X140959D01*
G01X145420Y-594693D01*
G01Y-593667D01*
G01X151921D01*
G01X152851Y-586599D01*
G01Y-573796D01*
G01X170851D01*
G01Y-586599D01*
G01X171781Y-593667D01*
G01X173742D01*
G01X176389Y-582925D01*
G01Y-571289D01*
G01X190389D01*
G01Y-582925D01*
G01X193036Y-593667D01*
G01X194264D01*
G01X196083Y-583271D01*
G01Y-570531D01*
G01X212083D01*
G01Y-583271D01*
G01X213902Y-593667D01*
G01X220697D01*
G01X237054Y-610024D01*
G01Y-1397766D01*
G01X220697Y-1414123D01*
G01X72527D01*
G01X62227Y-1411823D01*
G01X13558D01*
G01Y-1425494D01*
G01X19358Y-1435494D01*
G01Y-1454683D01*
G01X17708Y-1459683D01*
G01Y-1510001D01*
G01X847350D01*
G01Y-83247D01*
G01X848701D01*
G01Y191660D01*
G01X424701D01*
G01Y74773D01*
G01X424688Y73284D01*
G01X424649Y71796D01*
G01X424584Y70309D01*
G01X424493Y68823D01*
G01X424376Y67339D01*
G01X424234Y65857D01*
G01X424065Y64378D01*
G01X423871Y62902D01*
G01X423651Y61429D01*
G01X423405Y59961D01*
G01X423134Y58497D01*
G01X422837Y57038D01*
G01X422515Y55585D01*
G01X422167Y54137D01*
G01X421794Y52696D01*
G01X421397Y51261D01*
G01X420974Y49834D01*
G01X420526Y48414D01*
G01X420054Y47002D01*
G01X419557Y45599D01*
G01X419035Y44204D01*
G01X418490Y42819D01*
G01X417920Y41444D01*
G01X417326Y40078D01*
G01X416709Y38724D01*
G01X416068Y37380D01*
G01X415404Y36048D01*
G01X414716Y34727D01*
G01X414006Y33419D01*
G01X413273Y32123D01*
G01X412517Y30840D01*
G01X411740Y29571D01*
G01X410940Y28315D01*
G01X410118Y27074D01*
G01X409275Y25847D01*
G01X408410Y24635D01*
G01X407525Y23438D01*
G01X406618Y22257D01*
G01X405692Y21092D01*
G01X404745Y19943D01*
G01X403778Y18811D01*
G01X402791Y17696D01*
G01X401785Y16599D01*
G01X400761Y15519D01*
G01X399717Y14457D01*
G01X398655Y13413D01*
G01X397575Y12389D01*
G01X396478Y11383D01*
G01X395363Y10396D01*
G01X394231Y9429D01*
G01X393082Y8482D01*
G01X391917Y7556D01*
G01X390736Y6649D01*
G01X389539Y5764D01*
G01X388327Y4899D01*
G01X387100Y4056D01*
G01X385859Y3234D01*
G01X384603Y2434D01*
G01X383334Y1657D01*
G01X382051Y901D01*
G01X380755Y168D01*
G01X379447Y-542D01*
G01X378126Y-1230D01*
G01X376794Y-1894D01*
G01X375450Y-2535D01*
G01X374096Y-3152D01*
G01X372730Y-3746D01*
G01X371355Y-4316D01*
G01X369970Y-4861D01*
G01X368575Y-5383D01*
G01X367172Y-5880D01*
G01X365760Y-6352D01*
G01X364340Y-6800D01*
G01X362913Y-7223D01*
G01X361478Y-7620D01*
G01X360037Y-7993D01*
G01X358589Y-8341D01*
G01X357136Y-8663D01*
G01X355677Y-8960D01*
G01X354213Y-9231D01*
G01X352745Y-9477D01*
G01X351272Y-9697D01*
G01X349796Y-9891D01*
G01X348317Y-10060D01*
G01X346835Y-10202D01*
G01X345351Y-10319D01*
G01X343865Y-10410D01*
G01X342378Y-10475D01*
G01X340890Y-10514D01*
G01X339401Y-10527D01*
G01X236140D01*
G01X234999Y-10537D01*
G01X233858Y-10567D01*
G01X232718Y-10618D01*
G01X231579Y-10688D01*
G01X230441Y-10779D01*
G01X229305Y-10889D01*
G01X228171Y-11020D01*
G01X227040Y-11170D01*
G01X225912Y-11341D01*
G01X224786Y-11531D01*
G01X223665Y-11742D01*
G01X222547Y-11972D01*
G01X221433Y-12221D01*
G01X220324Y-12490D01*
G01X219220Y-12779D01*
G01X218121Y-13087D01*
G01X217028Y-13415D01*
G01X215940Y-13762D01*
G01X214859Y-14128D01*
G01X213785Y-14513D01*
G01X212717Y-14916D01*
G01X211657Y-15339D01*
G01X210605Y-15780D01*
G01X209560Y-16240D01*
G01X208524Y-16718D01*
G01X207496Y-17214D01*
G01X206477Y-17728D01*
G01X205468Y-18260D01*
G01X204468Y-18810D01*
G01X203477Y-19378D01*
G01X202497Y-19963D01*
G01X201528Y-20565D01*
G01X200569Y-21184D01*
G01X199621Y-21820D01*
G01X198685Y-22472D01*
G01X197760Y-23141D01*
G01X196847Y-23826D01*
G01X195947Y-24527D01*
G01X195059Y-25244D01*
G01X194184Y-25976D01*
G01X193321Y-26724D01*
G01X192473Y-27487D01*
G01X191637Y-28265D01*
G01X190816Y-29057D01*
G01X190008Y-29864D01*
G01X189215Y-30684D01*
G01X188437Y-31519D01*
G01X187674Y-32367D01*
G01X186925Y-33229D01*
G01X186192Y-34103D01*
G01X185474Y-34991D01*
G01X184772Y-35891D01*
G01X184087Y-36803D01*
G01X183417Y-37727D01*
G01X182764Y-38663D01*
G01X182127Y-39610D01*
G01X181507Y-40568D01*
G01X180904Y-41537D01*
G01X180319Y-42517D01*
G01X179750Y-43507D01*
G01X179200Y-44506D01*
G01X178667Y-45515D01*
G01X178151Y-46534D01*
G01X177654Y-47561D01*
G01X177175Y-48597D01*
G01X176715Y-49641D01*
G01X176273Y-50693D01*
G01X175849Y-51753D01*
G01X175445Y-52820D01*
G01X175059Y-53894D01*
G01X174692Y-54975D01*
G01X174344Y-56062D01*
G01X174016Y-57155D01*
G01X173707Y-58254D01*
G01X173417Y-59358D01*
G01X173147Y-60466D01*
G01X172896Y-61580D01*
G01X172665Y-62698D01*
G01X172454Y-63819D01*
G01X172263Y-64944D01*
G01X172091Y-66073D01*
G01X171940Y-67204D01*
G01X171808Y-68337D01*
G01X171697Y-69473D01*
G01X171605Y-70611D01*
G01X171534Y-71750D01*
G01X171482Y-72890D01*
G01X171451Y-74031D01*
G01X171440Y-75172D01*
G01X171437Y-78243D01*
G01X171431D01*
G01Y-118691D01*
G01X155074Y-135048D01*
G01X23951D01*
G01Y-139748D01*
G01X21963D01*
G01Y-151298D01*
G01X93556D01*
G01X100213Y-157955D01*
G01Y-292541D01*
G01X93556Y-299198D01*
G01X64589D01*
G01Y-519266D01*
G01X72663D01*
G01X89020Y-535623D01*
G01Y-594465D01*
G01X106486D01*
G01Y-595067D01*
G01X114154Y-596589D01*
G01X126561D01*
G01Y-611589D01*
G01X113928D01*
G01X106486Y-614171D01*
G01Y-615065D01*
G01X105053D01*
G01Y-644395D01*
G01X102415Y-659488D01*
G01Y-672245D01*
G01X87415D01*
G01Y-659526D01*
G01X84453Y-644426D01*
G01Y-618263D01*
G01X72663Y-630053D01*
G01X59887D01*
G01Y-629122D01*
G01X53475Y-626749D01*
G01X40948D01*
G01Y-611749D01*
G01X53661D01*
G01X59887Y-610160D01*
G01Y-609453D01*
G01X68420D01*
G01Y-539866D01*
G01X64589D01*
G01Y-538887D01*
G01X59550Y-536856D01*
G01X47082D01*
G01Y-521856D01*
G01X59634D01*
G01X64589Y-520136D01*
G01Y-519266D01*
G01Y-299198D01*
G01X9776D01*
G01Y-325378D01*
G01X7797Y-338147D01*
G01X6976D01*
G01Y-345368D01*
G01X6964D01*
G01Y-348244D01*
G01X-8036D01*
G01Y-350244D01*
G01X6964D01*
G01Y-362897D01*
G01X10264Y-376989D01*
G01Y-401776D01*
G01X6958Y-412802D01*
G01Y-425336D01*
G01X-8042D01*
G01Y-427336D01*
G01X6958D01*
G01Y-439940D01*
G01X10525Y-452521D01*
G01Y-519386D01*
G01X16665D01*
G01X33057Y-521856D01*
G01X45082D01*
G01Y-536856D01*
G01X31808D01*
G01X16748Y-539986D01*
G01X10525D01*
G01Y-561693D01*
G01X9672D01*
G01X6203Y-571955D01*
G01Y-582462D01*
G01X-5797D01*
G01Y-571952D01*
G01X-9239Y-561693D01*
G01X-10075D01*
G01Y-559200D01*
G01X-10408Y-558209D01*
G01X-10075Y-557745D01*
G01Y-539986D01*
G01X-18791D01*
G01Y-584465D01*
G01X-6791D01*
G01Y-595024D01*
G01X-3357Y-605260D01*
G01X-2513D01*
G01Y-609463D01*
G01X17389D01*
G01X26351Y-611749D01*
G01X38948D01*
G01Y-626749D01*
G01X26759D01*
G01X17535Y-630063D01*
G01X15863D01*
G01Y-697261D01*
G01X15190D01*
G01X13521Y-703958D01*
G01Y-716590D01*
G01X-1479D01*
G01Y-718590D01*
G01X13521D01*
G01Y-731048D01*
G01X15877Y-737906D01*
G01X16749D01*
G01Y-775565D01*
G01X13521Y-783973D01*
G01Y-796417D01*
G01X-1479D01*
G01Y-798417D01*
G01X13521D01*
G01Y-808417D01*
G01X14342D01*
G01X16321Y-821186D01*
G01Y-847366D01*
G01X100101D01*
G01X106758Y-854023D01*
G01Y-988609D01*
G01X100101Y-995266D01*
G01X28508D01*
G01Y-1006816D01*
G01X30496D01*
G01Y-1011516D01*
G01X161619D01*
G01X177976Y-1027873D01*
G01Y-1061277D01*
G01X172301Y-1081277D01*
G01Y-1087610D01*
G01X168926D01*
G01Y-1088110D01*
G01X166433D01*
G01Y-1087610D01*
G01X163051D01*
G01Y-1081277D01*
G01X157376Y-1061277D01*
G01Y-1032116D01*
G01X26253D01*
G01X9896Y-1015759D01*
G01Y-1012816D01*
G01X6558D01*
G01Y-1012815D01*
G01X3220D01*
G01Y-1015758D01*
G01X-13137Y-1032115D01*
G01X-144260D01*
G01Y-1061276D01*
G01X-149935Y-1081276D01*
G01Y-1087609D01*
G01X-153310D01*
G01Y-1088109D01*
G01X-155803D01*
G01Y-1087609D01*
G01X-159185D01*
G01Y-1081276D01*
G01X-162060Y-1071144D01*
G01Y-1089609D01*
G01X-161053D01*
G01Y-1090109D01*
G01X-155803D01*
G01Y-1089609D01*
G01X-153310D01*
G01Y-1090109D01*
G01X-152810D01*
G01Y-1092609D01*
G01X-153310D01*
G01Y-1096859D01*
G01X-152692D01*
G01X-147868Y-1113859D01*
G01X-147023D01*
G01Y-1145603D01*
G01X-15900D01*
G01X457Y-1161960D01*
G01Y-1164903D01*
G01X3795D01*
G01Y-1164902D01*
G01X7133D01*
G01Y-1161959D01*
G01X23490Y-1145602D01*
G01X154613D01*
G01Y-1113858D01*
G01X155335D01*
G01X160176Y-1096451D01*
G01Y-1089610D01*
G01X161183D01*
G01Y-1090110D01*
G01X166433D01*
G01Y-1089610D01*
G01X168926D01*
G01Y-1090110D01*
G01X169426D01*
G01Y-1092610D01*
G01X168926D01*
G01Y-1096860D01*
G01X169544D01*
G01X174367Y-1113858D01*
G01X175213D01*
G01Y-1149845D01*
G01X158856Y-1166202D01*
G01X27733D01*
G01Y-1170902D01*
G01X25745D01*
G01Y-1182452D01*
G01X97338D01*
G01X103995Y-1189109D01*
G01Y-1323695D01*
G01X97338Y-1330352D01*
G01X13558D01*
G01Y-1356456D01*
G01X12258Y-1368978D01*
G01Y-1381823D01*
G01X-5742D01*
G01Y-1368978D01*
G01X-7042Y-1356456D01*
G01Y-1330352D01*
G01X-89748D01*
G01X-96405Y-1323695D01*
G01Y-1189109D01*
G01X-89748Y-1182452D01*
G01X-18155D01*
G01Y-1170903D01*
G01X-20143D01*
G01Y-1166203D01*
G01X-151266D01*
G01X-167623Y-1149846D01*
G01Y-1116450D01*
G01X-162060Y-1096450D01*
G01Y-1089609D01*
G01Y-1071144D01*
G01X-164860Y-1061276D01*
G01Y-1027872D01*
G01X-148503Y-1011515D01*
G01X-17380D01*
G01Y-1006815D01*
G01X-15392D01*
G01Y-995266D01*
G01X-86985D01*
G01X-93642Y-988609D01*
G01Y-854023D01*
G01X-86985Y-847366D01*
G01X-4279D01*
G01Y-821186D01*
G01X-2300Y-808417D01*
G01X-1479D01*
G01Y-798417D01*
G01Y-796417D01*
G01Y-783822D01*
G01X-3080Y-778009D01*
G01X-3851D01*
G01Y-740532D01*
G01X-1479Y-731175D01*
G01Y-718590D01*
G01Y-716590D01*
G01Y-704099D01*
G01X-4737Y-694770D01*
G01Y-672125D01*
G01X-18848D01*
G01Y-671174D01*
G01X-23768Y-669289D01*
G01X-36340D01*
G01Y-654289D01*
G01X-23808D01*
G01X-16389Y-651525D01*
G01X-4737D01*
G01Y-630063D01*
G01X-6756D01*
G01X-23113Y-613706D01*
G01Y-605260D01*
G01X-22252D01*
G01X-18791Y-595021D01*
G01Y-584465D01*
G01Y-539986D01*
G01X-18989D01*
G01Y-539357D01*
G01X-30239Y-536728D01*
G01X-42937D01*
G01Y-521728D01*
G01X-30153D01*
G01X-18989Y-519969D01*
G01Y-519386D01*
G01X-10075D01*
G01Y-498071D01*
G01X-29265D01*
G01X-38749Y-494604D01*
G01X-51215D01*
G01Y-479604D01*
G01X-38553D01*
G01X-29067Y-477471D01*
G01X-10075D01*
G01Y-452697D01*
G01X-8042Y-440132D01*
G01Y-427336D01*
G01Y-425336D01*
G01Y-412622D01*
G01X-10336Y-401646D01*
G01Y-377093D01*
G01X-8036Y-363001D01*
G01Y-350244D01*
G01Y-348244D01*
G01Y-345368D01*
G01X-8024D01*
G01Y-338147D01*
G01X-8845D01*
G01X-10824Y-325378D01*
G01Y-299198D01*
G01X-93530D01*
G01X-100187Y-292541D01*
G01Y-157955D01*
G01X-93530Y-151298D01*
G01X-21937D01*
G01Y-139749D01*
G01X-23925D01*
G01Y-135049D01*
G01X-102509D01*
G01Y-477119D01*
G01X-77725D01*
G01X-65799Y-479604D01*
G01X-53215D01*
G01Y-494604D01*
G01X-65980D01*
G01X-75034Y-497000D01*
G01Y-497719D01*
G01X-79547D01*
G01Y-651245D01*
G01X-56456D01*
G01Y-652176D01*
G01X-50880Y-654289D01*
G01X-38340D01*
G01Y-669289D01*
G01X-50764D01*
G01X-56456Y-671054D01*
G01Y-671845D01*
G01X-79461D01*
G01X-88555Y-669324D01*
G01X-101154D01*
G01Y-654324D01*
G01X-88642D01*
G01X-79547Y-651245D01*
G01Y-497719D01*
G01X-99960D01*
G01X-109921Y-494654D01*
G01X-122501D01*
G01Y-479654D01*
G01X-109884D01*
G01X-102509Y-477802D01*
G01Y-477119D01*
G01Y-135049D01*
G01X-155048D01*
G01X-171433Y-118664D01*
G01Y-78228D01*
G01X-171451Y-73674D01*
G01X-171465Y-72535D01*
G01X-171500Y-71396D01*
G01X-171554Y-70259D01*
G01X-171629Y-69122D01*
G01X-171723Y-67987D01*
G01X-171838Y-66853D01*
G01X-171972Y-65722D01*
G01X-172127Y-64594D01*
G01X-172301Y-63468D01*
G01X-172495Y-62345D01*
G01X-172708Y-61227D01*
G01X-172942Y-60112D01*
G01X-173195Y-59001D01*
G01X-173467Y-57895D01*
G01X-173759Y-56794D01*
G01X-174070Y-55698D01*
G01X-174401Y-54608D01*
G01X-174750Y-53524D01*
G01X-175119Y-52446D01*
G01X-175506Y-51375D01*
G01X-175913Y-50311D01*
G01X-176338Y-49254D01*
G01X-176781Y-48204D01*
G01X-177243Y-47163D01*
G01X-177724Y-46130D01*
G01X-178222Y-45106D01*
G01X-178738Y-44091D01*
G01X-179272Y-43084D01*
G01X-179824Y-42088D01*
G01X-180393Y-41101D01*
G01X-180980Y-40125D01*
G01X-181583Y-39159D01*
G01X-182204Y-38203D01*
G01X-182841Y-37259D01*
G01X-183495Y-36326D01*
G01X-184165Y-35405D01*
G01X-184851Y-34496D01*
G01X-185553Y-33599D01*
G01X-186271Y-32714D01*
G01X-187004Y-31842D01*
G01X-187752Y-30984D01*
G01X-188516Y-30138D01*
G01X-189294Y-29306D01*
G01X-190087Y-28488D01*
G01X-190894Y-27684D01*
G01X-191715Y-26895D01*
G01X-192549Y-26120D01*
G01X-193398Y-25359D01*
G01X-194259Y-24614D01*
G01X-195134Y-23884D01*
G01X-196021Y-23170D01*
G01X-196921Y-22471D01*
G01X-197833Y-21789D01*
G01X-198757Y-21122D01*
G01X-199692Y-20472D01*
G01X-200639Y-19838D01*
G01X-201596Y-19222D01*
G01X-202565Y-18622D01*
G01X-203543Y-18039D01*
G01X-204532Y-17474D01*
G01X-205531Y-16926D01*
G01X-206539Y-16395D01*
G01X-207556Y-15883D01*
G01X-208583Y-15389D01*
G01X-209617Y-14912D01*
G01X-210660Y-14454D01*
G01X-211711Y-14015D01*
G01X-212770Y-13594D01*
G01X-213835Y-13191D01*
G01X-214908Y-12808D01*
G01X-215987Y-12443D01*
G01X-217073Y-12098D01*
G01X-218164Y-11772D01*
G01X-219261Y-11465D01*
G01X-220363Y-11177D01*
G01X-221470Y-10909D01*
G01X-222582Y-10660D01*
G01X-223698Y-10431D01*
G01X-224818Y-10222D01*
G01X-225941Y-10032D01*
G01X-227067Y-9862D01*
G01X-228196Y-9712D01*
G01X-229328Y-9582D01*
G01X-230462Y-9472D01*
G01X-231597Y-9382D01*
G01X-232734Y-9311D01*
G01X-233872Y-9261D01*
G01X-235011Y-9231D01*
G01X-236150Y-9221D01*
G01X-436599D01*
G01X-438088Y-9208D01*
G01X-439576Y-9169D01*
G01X-441063Y-9104D01*
G01X-442549Y-9013D01*
G01X-444033Y-8896D01*
G01X-445515Y-8754D01*
G01X-446994Y-8585D01*
G01X-448470Y-8391D01*
G01X-449943Y-8171D01*
G01X-451411Y-7925D01*
G01X-452875Y-7654D01*
G01X-454334Y-7357D01*
G01X-455787Y-7035D01*
G01X-457235Y-6687D01*
G01X-458676Y-6314D01*
G01X-460111Y-5917D01*
G01X-461538Y-5494D01*
G01X-462958Y-5046D01*
G01X-464370Y-4574D01*
G01X-465773Y-4077D01*
G01X-467168Y-3555D01*
G01X-468553Y-3010D01*
G01X-469928Y-2440D01*
G01X-471294Y-1846D01*
G01X-472648Y-1229D01*
G01X-473992Y-588D01*
G01X-475324Y76D01*
G01X-476645Y764D01*
G01X-477953Y1474D01*
G01X-479249Y2207D01*
G01X-480532Y2963D01*
G01X-481801Y3740D01*
G01X-483057Y4540D01*
G01X-484298Y5362D01*
G01X-485525Y6205D01*
G01X-486737Y7070D01*
G01X-487934Y7955D01*
G01X-489115Y8862D01*
G01X-490280Y9788D01*
G01X-491429Y10735D01*
G01X-492561Y11702D01*
G01X-493676Y12689D01*
G01X-494773Y13695D01*
G01X-495853Y14719D01*
G01X-496915Y15763D01*
G01X-497959Y16825D01*
G01X-498983Y17905D01*
G01X-499989Y19002D01*
G01X-500976Y20117D01*
G01X-501943Y21249D01*
G01X-502890Y22398D01*
G01X-503816Y23563D01*
G01X-504723Y24744D01*
G01X-505608Y25941D01*
G01X-506473Y27153D01*
G01X-507316Y28380D01*
G01X-508138Y29621D01*
G01X-508938Y30877D01*
G01X-509715Y32146D01*
G01X-510471Y33429D01*
G01X-511204Y34725D01*
G01X-511914Y36033D01*
G01X-512602Y37354D01*
G01X-513266Y38686D01*
G01X-513907Y40030D01*
G01X-514524Y41384D01*
G01X-515118Y42750D01*
G01X-515688Y44125D01*
G01X-516233Y45510D01*
G01X-516755Y46905D01*
G01X-517252Y48308D01*
G01X-517724Y49720D01*
G01X-518172Y51140D01*
G01X-518595Y52567D01*
G01X-518992Y54002D01*
G01X-519365Y55443D01*
G01X-519713Y56891D01*
G01X-520035Y58344D01*
G01X-520332Y59803D01*
G01X-520603Y61267D01*
G01X-520849Y62735D01*
G01X-521069Y64208D01*
G01X-521263Y65684D01*
G01X-521432Y67163D01*
G01X-521574Y68645D01*
G01X-521691Y70129D01*
G01X-521782Y71615D01*
G01X-521847Y73102D01*
G01X-521886Y74590D01*
G01X-521899Y76079D01*
G37*
G36*
G01X171431Y-83247D02*
G01Y-83227D01*
G01X171420Y-83247D01*
G01X171431D01*
G37*
G36*
G01X-504299Y76079D02*
G01Y194626D01*
G01X-497799Y219684D01*
G01Y456804D01*
G01X-461599D01*
G01Y345804D01*
G01X-221999D01*
G01Y788804D01*
G01X-801199D01*
G01Y345804D01*
G01X-561599D01*
G01Y456804D01*
G01X-525399D01*
G01Y219684D01*
G01X-518899Y194626D01*
G01Y76079D01*
G03X-436599Y-6221I82300J0D01*
G01X-236150D01*
G02X-168451Y-73663I0J-67700D01*
G01X-168405Y-85733D01*
G01Y-117449D01*
G01X-153805Y-132049D01*
G01X-20925D01*
G01Y-136749D01*
G01X-18925D01*
G01Y-142749D01*
G01X-18937D01*
G01Y-154298D01*
G01X-92287D01*
G01X-97187Y-159198D01*
G01Y-291298D01*
G01X-92287Y-296198D01*
G01X-7824D01*
G01Y-325147D01*
G01X-6274Y-335147D01*
G01X-5024D01*
G01Y-345147D01*
G01X3976D01*
G01Y-335147D01*
G01X5226D01*
G01X6776Y-325147D01*
G01Y-296198D01*
G01X92313D01*
G01X97213Y-291298D01*
G01Y-159198D01*
G01X92313Y-154298D01*
G01X18963D01*
G01Y-142748D01*
G01X18951D01*
G01Y-136748D01*
G01X20951D01*
G01Y-132048D01*
G01X153831D01*
G01X168431Y-117448D01*
G01Y-85710D01*
G01X168440Y-75169D01*
G02X236140Y-7527I67700J-58D01*
G01X339401D01*
G03X421701Y74773I0J82300D01*
G01Y195260D01*
G01X428201Y220251D01*
G01Y493804D01*
G01X471401D01*
G01Y345804D01*
G01X621751D01*
G01X801751Y525804D01*
G01Y988804D01*
G01X258304D01*
G01X27051Y808804D01*
G01Y345804D01*
G01X357401D01*
G01Y493804D01*
G01X400601D01*
G01Y220251D01*
G01X407101Y195260D01*
G01Y74773D01*
G02X339401Y7073I-67700J0D01*
G01X236140D01*
G03X153840Y-75157I0J-82300D01*
G01X153831Y-85698D01*
G01Y-117448D01*
G01X20951D01*
G01X6351Y-132048D01*
G01Y-136748D01*
G01X3013D01*
G01Y-146748D01*
G01X14063D01*
G01Y-154298D01*
G01X18963Y-159198D01*
G01X92313D01*
G01Y-291298D01*
G01X-92287D01*
G01Y-159198D01*
G01X-18937D01*
G01X-14037Y-154298D01*
G01Y-146749D01*
G01X-2987D01*
G01Y-136749D01*
G01X-6325D01*
G01Y-132049D01*
G01X-20925Y-117449D01*
G01X-153805D01*
G01Y-85705D01*
G01X-153851Y-73607D01*
G03X-236150Y8379I-82299J-314D01*
G01X-436599D01*
G02X-504299Y76079I0J67700D01*
G01X-504299Y76079D01*
G37*
G36*
G01X-436599Y11379D02*
G01X-236150D01*
G02X-150851Y-73596I-2J-85302D01*
G01X-150816Y-82705D01*
G01X-150805D01*
G01Y-114449D01*
G01X-19682D01*
G01X-3325Y-130806D01*
G01Y-133749D01*
G01X13D01*
G01Y-133748D01*
G01X3351D01*
G01Y-130805D01*
G01X19708Y-114448D01*
G01X150831D01*
G01Y-82704D01*
G01X150834D01*
G01X150840Y-75154D01*
G02X236140Y10073I85302J-75D01*
G01X339401D01*
G03X404101Y74773I0J64700D01*
G01Y191660D01*
G01X-501299D01*
G01Y76079D01*
G03X-436599Y11379I64700J0D01*
G01X-436599Y11379D01*
G37*
G36*
G01X11063Y-155541D02*
G01Y-149748D01*
G01X13D01*
G01Y-149749D01*
G01X-11037D01*
G01Y-155541D01*
G01X-17694Y-162198D01*
G01X-89287D01*
G01Y-288298D01*
G01X89313D01*
G01Y-162198D01*
G01X17720D01*
G01X11063Y-155541D01*
G37*
G36*
G01X-9842Y-1454201D02*
G01X-8192Y-1459201D01*
G01Y-1510001D01*
G01X14708D01*
G01Y-1459201D01*
G01X16358Y-1454201D01*
G01Y-1436301D01*
G01X10558Y-1426301D01*
G01Y-1408823D01*
G01X17558D01*
G01Y-1398823D01*
G01X9258D01*
G01Y-1388823D01*
G01X-2742D01*
G01Y-1403823D01*
G01X-4042D01*
G01Y-1426301D01*
G01X-9842Y-1436301D01*
G01Y-1454201D01*
G37*
G36*
G01X42558Y-1398823D02*
G01Y-1388823D01*
G01X30558D01*
G01Y-1398823D01*
G01X23558D01*
G01Y-1408823D01*
G01X49558D01*
G01Y-1398823D01*
G01X42558D01*
G37*
G36*
G01X141561Y-599593D02*
G01Y-599589D01*
G01X131561D01*
G01Y-608589D01*
G01X141561D01*
G01Y-608584D01*
G01X148420Y-611255D01*
G01Y-611267D01*
G01X219454D01*
G01Y-1396523D01*
G01X132379D01*
G01X130079Y-1383376D01*
G01Y-1373376D01*
G01X120079D01*
G01Y-1383376D01*
G01X117779Y-1396523D01*
G01X111685D01*
G01X108385Y-1383134D01*
G01Y-1374134D01*
G01X100385D01*
G01Y-1383134D01*
G01X97085Y-1396523D01*
G01X90147D01*
G01X88847Y-1386641D01*
G01Y-1376641D01*
G01X76847D01*
G01Y-1386641D01*
G01X75547Y-1396523D01*
G01X72858D01*
G01X62558Y-1398823D01*
G01X55558D01*
G01Y-1408823D01*
G01X62558D01*
G01X72858Y-1411123D01*
G01X219454D01*
G01X234054Y-1396523D01*
G01Y-611267D01*
G01X219454Y-596667D01*
G01X211381D01*
G01X209083Y-583531D01*
G01Y-573531D01*
G01X199083D01*
G01Y-583531D01*
G01X196785Y-596667D01*
G01X190686D01*
G01X187389Y-583289D01*
G01Y-574289D01*
G01X179389D01*
G01Y-583289D01*
G01X176092Y-596667D01*
G01X169150D01*
G01X167851Y-586796D01*
G01Y-576796D01*
G01X155851D01*
G01Y-586796D01*
G01X154552Y-596667D01*
G01X148420D01*
G01Y-596678D01*
G01X141561Y-599593D01*
G37*
G36*
G01X-90642Y-987366D02*
G01X-85742Y-992266D01*
G01X-12392D01*
G01Y-1003815D01*
G01X-12380D01*
G01Y-1009815D01*
G01X-14380D01*
G01Y-1014515D01*
G01X-147260D01*
G01X-161860Y-1029115D01*
G01Y-1060859D01*
G01X-156185Y-1080859D01*
G01Y-1085109D01*
G01X-152935D01*
G01Y-1080859D01*
G01X-147260Y-1060859D01*
G01Y-1029115D01*
G01X-14380D01*
G01X220Y-1014515D01*
G01Y-1009815D01*
G01X3559D01*
G01Y-999815D01*
G01X-7492D01*
G01Y-992266D01*
G01X-12392Y-987366D01*
G01X-85742D01*
G01Y-855266D01*
G01X98858D01*
G01Y-987366D01*
G01X25508D01*
G01X20608Y-992266D01*
G01Y-999816D01*
G01X9558D01*
G01Y-1009816D01*
G01X12896D01*
G01Y-1014516D01*
G01X27496Y-1029116D01*
G01X160376D01*
G01Y-1060860D01*
G01X166051Y-1080860D01*
G01Y-1085110D01*
G01X169301D01*
G01Y-1080860D01*
G01X174976Y-1060860D01*
G01Y-1029116D01*
G01X160376Y-1014516D01*
G01X27496D01*
G01Y-1009816D01*
G01X25496D01*
G01Y-1003816D01*
G01X25508D01*
G01Y-992266D01*
G01X98858D01*
G01X103758Y-987366D01*
G01Y-855266D01*
G01X98858Y-850366D01*
G01X13321D01*
G01Y-821417D01*
G01X11771Y-811417D01*
G01X10521D01*
G01Y-801417D01*
G01X1521D01*
G01Y-811417D01*
G01X271D01*
G01X-1279Y-821417D01*
G01Y-850366D01*
G01X-85742D01*
G01X-90642Y-855266D01*
G01Y-987366D01*
G37*
G36*
G01X-82742Y-984366D02*
G01X-11149D01*
G01X-4492Y-991023D01*
G01Y-996815D01*
G01X6559D01*
G01Y-996816D01*
G01X17608D01*
G01Y-991023D01*
G01X24265Y-984366D01*
G01X95858D01*
G01Y-858266D01*
G01X-82742D01*
G01Y-984366D01*
G37*
G36*
G01X6795Y-1177902D02*
G01X17845D01*
G01Y-1185452D01*
G01X22745Y-1190352D01*
G01X96095D01*
G01Y-1322452D01*
G01X-88505D01*
G01Y-1190352D01*
G01X-15155D01*
G01X-10255Y-1185452D01*
G01Y-1177903D01*
G01X796D01*
G01Y-1167903D01*
G01X-2543D01*
G01Y-1163203D01*
G01X-17143Y-1148603D01*
G01X-150023D01*
G01Y-1116859D01*
G01X-150135D01*
G01X-155810Y-1096859D01*
G01Y-1092609D01*
G01X-159060D01*
G01Y-1096859D01*
G01X-164623Y-1116859D01*
G01Y-1148603D01*
G01X-150023Y-1163203D01*
G01X-17143D01*
G01Y-1167903D01*
G01X-15143D01*
G01Y-1173903D01*
G01X-15155D01*
G01Y-1185452D01*
G01X-88505D01*
G01X-93405Y-1190352D01*
G01Y-1322452D01*
G01X-88505Y-1327352D01*
G01X-4042D01*
G01Y-1356301D01*
G01X-2742Y-1368823D01*
G01Y-1378823D01*
G01X9258D01*
G01Y-1368823D01*
G01X10558Y-1356301D01*
G01Y-1327352D01*
G01X96095D01*
G01X100995Y-1322452D01*
G01Y-1190352D01*
G01X96095Y-1185452D01*
G01X22745D01*
G01Y-1173902D01*
G01X22733D01*
G01Y-1167902D01*
G01X24733D01*
G01Y-1163202D01*
G01X157613D01*
G01X172213Y-1148602D01*
G01Y-1116858D01*
G01X172100D01*
G01X166426Y-1096860D01*
G01Y-1092610D01*
G01X163176D01*
G01Y-1096860D01*
G01X157614Y-1116858D01*
G01X157613D01*
G01Y-1148602D01*
G01X24733D01*
G01X10133Y-1163202D01*
G01Y-1167902D01*
G01X6795D01*
G01Y-1177902D01*
G37*
G36*
G01X14845Y-1186695D02*
G01Y-1180902D01*
G01X3796D01*
G01Y-1180903D01*
G01X-7255D01*
G01Y-1186695D01*
G01X-13912Y-1193352D01*
G01X-85505D01*
G01Y-1319452D01*
G01X93095D01*
G01Y-1193352D01*
G01X21502D01*
G01X14845Y-1186695D01*
G37*
G36*
G01X-119501Y-491654D02*
G01X-109501D01*
G01Y-487044D01*
G01X-109480Y-491651D01*
G01X-99509Y-494719D01*
G01X-78034D01*
G01Y-494690D01*
G01X-66215Y-491563D01*
G01Y-491604D01*
G01X-56215D01*
G01Y-482604D01*
G01X-66113D01*
G01Y-482603D01*
G01X-78034Y-480119D01*
G01X-99509D01*
G01Y-480142D01*
G01X-109513Y-482654D01*
G01X-119501D01*
G01Y-491654D01*
G37*
G36*
G01X-88154Y-657326D02*
G01Y-657324D01*
G01X-98154D01*
G01Y-666324D01*
G01X-88154D01*
G01Y-666322D01*
G01X-79053Y-668845D01*
G01X-59456D01*
G01Y-668844D01*
G01X-51312Y-666318D01*
G01Y-666289D01*
G01X-41340D01*
G01Y-657289D01*
G01X-51340D01*
G01Y-657323D01*
G01X-59456Y-654247D01*
G01Y-654245D01*
G01X-79053D01*
G01X-88154Y-657326D01*
G37*
G36*
G01X-48215Y-491604D02*
G01X-38215D01*
G01Y-491605D01*
G01X-28734Y-495071D01*
G01X-7075D01*
G01Y-522386D01*
G01X-15989D01*
G01Y-522533D01*
G01X-29937Y-524731D01*
G01Y-524728D01*
G01X-39937D01*
G01Y-533728D01*
G01X-29937D01*
G01Y-529100D01*
G01X-29919Y-533722D01*
G01X-15989Y-536977D01*
G01Y-536986D01*
G01X-7075D01*
G01Y-558693D01*
G01X225D01*
G01X-7075Y-558710D01*
G01X-2797Y-571462D01*
G01Y-579462D01*
G01X3203D01*
G01Y-571462D01*
G01X7519Y-558693D01*
G01X7525D01*
G01Y-536986D01*
G01X16440D01*
G01X32082Y-533735D01*
G01Y-533856D01*
G01X42082D01*
G01Y-524856D01*
G01X32082D01*
G01Y-524743D01*
G01X16440Y-522386D01*
G01X7525D01*
G01Y-452938D01*
G01X3952Y-440336D01*
G01X3958D01*
G01Y-430336D01*
G01X-5042D01*
G01Y-440336D01*
G01X-5036D01*
G01X-7075Y-452938D01*
G01Y-480471D01*
G01X-28734D01*
G01X-38215Y-482603D01*
G01Y-482604D01*
G01X-48215D01*
G01Y-491604D01*
G37*
G36*
G01X-9791Y-595514D02*
G01Y-587465D01*
G01X-15791D01*
G01Y-595514D01*
G01X-20099Y-608260D01*
G01X-20113D01*
G01Y-612463D01*
G01X-5513Y-627063D01*
G01X-1737D01*
G01Y-654525D01*
G01X-15848D01*
G01X-23340Y-657316D01*
G01Y-657289D01*
G01X-33340D01*
G01Y-666289D01*
G01X-23340D01*
G01Y-661789D01*
G01X-23312Y-666251D01*
G01X-15848Y-669111D01*
G01Y-669125D01*
G01X-1737D01*
G01Y-694261D01*
G01X1521Y-703590D01*
G01Y-713590D01*
G01X10521D01*
G01Y-703590D01*
G01X12846Y-694261D01*
G01X12863D01*
G01Y-627063D01*
G01X17012D01*
G01X26017Y-623828D01*
G01Y-623749D01*
G01X35948D01*
G01Y-614749D01*
G01X25974D01*
G01X17012Y-612463D01*
G01X-5513D01*
G01Y-608260D01*
G01X-5515D01*
G01X-9791Y-595514D01*
G37*
G36*
G01X-7336Y-401336D02*
G01X-5037Y-412336D01*
G01X-5042D01*
G01Y-422336D01*
G01X3958D01*
G01Y-412342D01*
G01X3964D01*
G01X7264Y-401336D01*
G01Y-377336D01*
G01X3964Y-363244D01*
G01Y-353244D01*
G01X-5036D01*
G01Y-363244D01*
G01X-7336Y-377336D01*
G01Y-401336D01*
G37*
G36*
G01X-851Y-775009D02*
G01X-794D01*
G01X1521Y-783417D01*
G01Y-793417D01*
G01X10521D01*
G01Y-783417D01*
G01X13749Y-775009D01*
G01Y-740906D01*
G01X13735D01*
G01X10521Y-731549D01*
G01Y-721590D01*
G01X1521D01*
G01Y-731549D01*
G01X-851Y-740906D01*
G01Y-775009D01*
G37*
G36*
G01X60082Y-524876D02*
G01Y-524856D01*
G01X50082D01*
G01Y-533856D01*
G01X60082D01*
G01Y-533836D01*
G01X67589Y-536862D01*
G01Y-536866D01*
G01X71420D01*
G01Y-612453D01*
G01X62887D01*
G01Y-612490D01*
G01X53948Y-614772D01*
G01Y-614749D01*
G01X43948D01*
G01Y-623749D01*
G01X53948D01*
G01Y-623725D01*
G01X62887Y-627034D01*
G01Y-627053D01*
G01X71420D01*
G01X86020Y-612453D01*
G01Y-612065D01*
G01X87453D01*
G01Y-644135D01*
G01X90417Y-659245D01*
G01X90415D01*
G01Y-669245D01*
G01X99415D01*
G01Y-659245D01*
G01X99412D01*
G01X102053Y-644135D01*
G01Y-612065D01*
G01X103486D01*
G01Y-612036D01*
G01X113561Y-608541D01*
G01Y-608589D01*
G01X123561D01*
G01Y-599589D01*
G01X113632D01*
G01Y-599544D01*
G01X103486Y-597530D01*
G01Y-597465D01*
G01X86020D01*
G01Y-536866D01*
G01X71420Y-522266D01*
G01X67589D01*
G01Y-522270D01*
G01X60082Y-524876D01*
G37*
M02*

