G04 ===== Begin FILE IDENTIFICATION =====*
G04 File Format:  Gerber RS274X*
G04 ===== End FILE IDENTIFICATION =====*
%FSLAX34Y34*%
%MOMM*%
%SFA1.0000B1.0000*%
%OFA0.0B0.0*%
%ADD14C,0.300000*%
%LNpcvia2*%
%IPPOS*%
%LPD*%
G75*
D14*
X-553165Y55401D03*
Y81901D03*
Y108401D03*
Y134901D03*
Y161401D03*
Y187901D03*
X-551170Y14640D03*
Y36918D03*
X-526665Y55401D03*
Y81901D03*
Y108401D03*
Y134901D03*
Y161401D03*
Y187901D03*
X-524670Y14640D03*
Y36918D03*
X-510562Y-30173D03*
Y-3673D03*
X-504837Y11914D03*
X-495505Y81741D03*
Y108241D03*
Y134741D03*
Y161241D03*
Y187741D03*
X-491776Y59813D03*
X-484062Y-30173D03*
Y-3673D03*
X-481878Y39950D03*
X-469005Y81741D03*
Y108241D03*
Y134741D03*
Y161241D03*
Y187741D03*
X-465276Y59813D03*
X-462461Y-43134D03*
Y-16634D03*
X-455531Y20871D03*
X-455378Y39950D03*
X-435961Y-43134D03*
Y-16634D03*
X-432474Y17645D03*
Y44145D03*
X-409461Y-43134D03*
Y-16634D03*
X-405974Y17645D03*
Y44145D03*
X-382961Y-43134D03*
Y-16634D03*
X-379474Y17645D03*
Y44145D03*
X-356461Y-43134D03*
Y-16634D03*
X-352974Y17645D03*
Y44145D03*
X-329961Y-43134D03*
Y-16634D03*
X-326474Y17645D03*
Y44145D03*
X-303461Y-43134D03*
Y-16634D03*
X-299974Y17645D03*
Y44145D03*
X-276961Y-43134D03*
Y-16634D03*
X-273474Y17645D03*
Y44145D03*
X-250461Y-43134D03*
Y-16634D03*
X-246974Y17645D03*
Y44145D03*
X-224475Y-84900D03*
X-223961Y-43134D03*
Y-16634D03*
X-220474Y17645D03*
Y44145D03*
X-210156Y-69669D03*
X-204856Y-167269D03*
Y-143780D03*
Y-117335D03*
X-204305Y-94911D03*
X-201074Y-1198423D03*
Y-1174934D03*
Y-1148489D03*
Y-1122490D03*
X-198311Y-1055230D03*
Y-1029231D03*
Y-1002786D03*
Y-979297D03*
X-194257Y-43323D03*
X-193974Y17645D03*
Y44145D03*
X-184258Y-1103524D03*
Y-1075300D03*
X-184135Y-84900D03*
X-183656Y-69669D03*
X-176406Y-167269D03*
Y-143780D03*
Y-117335D03*
Y-99041D03*
X-175621Y5255D03*
X-172624Y-1198423D03*
Y-1174934D03*
Y-1148489D03*
Y-1122490D03*
X-169861Y-1055230D03*
Y-1029231D03*
Y-1002786D03*
Y-979297D03*
X-167741Y-1088859D03*
X-164732Y-9708D03*
X-155181Y-167198D03*
Y-143709D03*
X-151399Y-1198352D03*
Y-1174863D03*
X-149121Y5255D03*
X-148636Y-1002857D03*
Y-979368D03*
X-145805Y-109448D03*
Y-90707D03*
X-145713Y-486930D03*
X-145200Y-64218D03*
Y-37718D03*
X-143060Y-1098984D03*
Y-1088984D03*
X-142023Y-1140602D03*
Y-1118831D03*
X-139193Y-1067337D03*
Y-1037115D03*
X-138232Y-9708D03*
X-133709Y-678191D03*
Y-643409D03*
X-133637Y-282804D03*
Y-253898D03*
Y-224998D03*
Y-196098D03*
Y-167198D03*
Y-143709D03*
X-133529Y-508430D03*
Y-469297D03*
Y-436297D03*
X-133517Y-337200D03*
Y-304200D03*
X-129855Y-1313958D03*
Y-1285052D03*
Y-1256152D03*
Y-1227252D03*
Y-1198352D03*
Y-1174863D03*
X-129735Y-1335354D03*
X-127092Y-1002857D03*
Y-979368D03*
Y-950468D03*
Y-921568D03*
Y-892668D03*
Y-863762D03*
X-126972Y-842366D03*
Y-809366D03*
X-124366Y-661600D03*
X-119805Y-109448D03*
Y-90707D03*
X-118700Y-64218D03*
Y-37718D03*
X-117060Y-1088984D03*
X-116023Y-1140602D03*
X-113193Y-1037115D03*
X-105187Y-282804D03*
Y-253898D03*
Y-224998D03*
Y-196098D03*
Y-167198D03*
Y-143709D03*
X-105079Y-508430D03*
Y-469297D03*
Y-436297D03*
X-105067Y-337200D03*
Y-304200D03*
X-102762Y-678191D03*
Y-643409D03*
X-101405Y-1313958D03*
Y-1285052D03*
Y-1256152D03*
Y-1227252D03*
Y-1198352D03*
Y-1174863D03*
X-101285Y-1335354D03*
X-98642Y-1002857D03*
Y-979368D03*
Y-950468D03*
Y-921568D03*
Y-892668D03*
Y-863762D03*
X-98522Y-842366D03*
Y-809366D03*
X-93805Y-109448D03*
Y-90707D03*
X-91060Y-1088984D03*
X-90023Y-1140602D03*
X-87193Y-1037115D03*
X-84287Y-282804D03*
Y-253898D03*
Y-224998D03*
Y-196098D03*
Y-167198D03*
X-81837Y-143709D03*
X-81195Y-1505002D03*
Y-1485003D03*
Y-1465004D03*
Y-1445005D03*
Y-1425006D03*
X-78111Y-1313960D03*
Y-1285054D03*
Y-1256154D03*
Y-1227254D03*
Y-1198354D03*
X-78055Y-1174863D03*
X-75292Y-978872D03*
Y-949966D03*
Y-921066D03*
Y-892166D03*
Y-863266D03*
X-75290Y-1002857D03*
X-74132Y-548264D03*
Y-508430D03*
Y-469297D03*
Y-436297D03*
X-74120Y-337200D03*
Y-304200D03*
X-71815Y-678191D03*
Y-643409D03*
X-70338Y-1335354D03*
X-67805Y-109448D03*
Y-90707D03*
X-67573Y-842366D03*
Y-809366D03*
X-66149Y-529004D03*
X-65060Y-1088984D03*
X-64023Y-1140602D03*
X-61193Y-1037115D03*
X-60112Y-1505002D03*
Y-1485003D03*
Y-1465004D03*
Y-1445005D03*
Y-1425006D03*
X-58356Y-619245D03*
Y-594004D03*
Y-568797D03*
X-55837Y-282804D03*
Y-253898D03*
Y-224998D03*
Y-196098D03*
Y-167198D03*
Y-143709D03*
X-52055Y-1174863D03*
X-49661Y-1313960D03*
Y-1285054D03*
Y-1256154D03*
Y-1227254D03*
Y-1198354D03*
X-49290Y-1002857D03*
X-46842Y-978872D03*
Y-949966D03*
Y-921066D03*
Y-892166D03*
Y-863266D03*
X-45682Y-548264D03*
Y-508430D03*
Y-469297D03*
Y-436297D03*
Y-403297D03*
Y-370297D03*
X-45670Y-337200D03*
Y-304200D03*
X-41888Y-1393166D03*
Y-1364260D03*
Y-1335354D03*
X-41805Y-109448D03*
Y-90707D03*
X-40868Y-678191D03*
Y-643409D03*
X-40265Y-776366D03*
Y-743366D03*
Y-710366D03*
X-39942Y-1434994D03*
X-39123Y-842366D03*
Y-809366D03*
X-39060Y-1088984D03*
X-38023Y-1140602D03*
X-35193Y-1037115D03*
X-33937Y-143709D03*
X-31195Y-1413512D03*
X-30155Y-1174863D03*
X-28512Y-619245D03*
Y-594004D03*
X-27390Y-1002857D03*
X-25993Y-282804D03*
Y-253898D03*
Y-196098D03*
Y-167198D03*
X-22343Y-568797D03*
X-19817Y-1313960D03*
Y-1285054D03*
Y-1227254D03*
Y-1198354D03*
X-19772Y-1505002D03*
Y-1485003D03*
Y-1465004D03*
Y-1445005D03*
X-16998Y-978872D03*
Y-949966D03*
Y-892166D03*
Y-863266D03*
X-15838Y-548264D03*
Y-508430D03*
Y-469297D03*
Y-436297D03*
Y-403297D03*
Y-370297D03*
X-15826Y-337200D03*
Y-304200D03*
X-15805Y-109448D03*
Y-90707D03*
X-13060Y-1088984D03*
X-12581Y-1422072D03*
Y-1393166D03*
Y-1364260D03*
Y-1335354D03*
X-12418Y-678191D03*
Y-643409D03*
X-12023Y-1140602D03*
X-10421Y-776366D03*
Y-743366D03*
Y-710366D03*
X-9279Y-842366D03*
Y-809366D03*
X-9193Y-1037115D03*
X7Y-282804D03*
Y-253898D03*
Y-196098D03*
Y-159749D03*
X13Y-123749D03*
Y-100629D03*
X2740Y-1088984D03*
X3789Y-1190903D03*
X3795Y-1154901D03*
X6183Y-1313960D03*
Y-1285054D03*
Y-1227254D03*
X6558Y-1022816D03*
Y-986816D03*
X7537Y-601447D03*
X9002Y-949966D03*
Y-892166D03*
Y-863266D03*
X12785Y-574017D03*
X15787Y-511297D03*
Y-476797D03*
Y-442297D03*
Y-407797D03*
Y-373297D03*
X15799Y-338700D03*
Y-304200D03*
X15831Y-109448D03*
Y-90707D03*
X17602Y-546632D03*
X18576Y-1088984D03*
X19581Y-1335354D03*
X19613Y-1140602D03*
X21103Y-1420477D03*
X21756Y-1372906D03*
X22346Y-842366D03*
Y-807866D03*
Y-773366D03*
Y-738866D03*
Y-704366D03*
X22443Y-1037115D03*
X23298Y-671766D03*
Y-637266D03*
X26007Y-282804D03*
Y-253898D03*
Y-196098D03*
Y-167198D03*
X26288Y-1505002D03*
Y-1485003D03*
Y-1465004D03*
Y-1445005D03*
X32183Y-1313960D03*
Y-1285054D03*
Y-1227254D03*
Y-1198354D03*
X33963Y-143221D03*
X34564Y-601447D03*
X35002Y-978872D03*
Y-949966D03*
Y-892166D03*
Y-863266D03*
X36558Y-1363280D03*
X37533Y-574017D03*
X37745Y-1174375D03*
X39894Y-546632D03*
X40510Y-1003345D03*
X41831Y-109448D03*
Y-90707D03*
X43214Y-511297D03*
Y-476797D03*
Y-442297D03*
Y-407797D03*
Y-373297D03*
X43226Y-338700D03*
Y-304200D03*
X44576Y-1088984D03*
X45613Y-1140602D03*
X46458Y-1434994D03*
Y-1417669D03*
X47008Y-1335354D03*
X48443Y-1037115D03*
X49773Y-842366D03*
Y-807866D03*
Y-773366D03*
Y-738866D03*
Y-704366D03*
X50443Y-671766D03*
Y-637266D03*
X55863Y-282804D03*
Y-253898D03*
Y-224998D03*
Y-196098D03*
Y-167198D03*
Y-143221D03*
X59645Y-1174375D03*
X61777Y-1379345D03*
Y-1351262D03*
X61993Y-601447D03*
Y-574017D03*
X62039Y-1313960D03*
Y-1285054D03*
Y-1256154D03*
Y-1227254D03*
Y-1198354D03*
X62062Y-546632D03*
X62410Y-1003345D03*
X64858Y-978872D03*
Y-949966D03*
Y-921066D03*
Y-892166D03*
Y-863266D03*
X66628Y-1505002D03*
Y-1485003D03*
Y-1465004D03*
Y-1445005D03*
Y-1425006D03*
X67831Y-109448D03*
Y-90707D03*
X68808Y-511297D03*
Y-476797D03*
X70576Y-1088984D03*
X71613Y-1140602D03*
X74173Y-338700D03*
Y-304200D03*
X74443Y-1037115D03*
X77432Y-695648D03*
X77518Y-666343D03*
Y-637266D03*
X77955Y-1335354D03*
X80720Y-842366D03*
Y-807866D03*
X81863Y-143221D03*
X82847Y-1353436D03*
X83787Y-1420477D03*
X84313Y-282804D03*
Y-253898D03*
Y-224998D03*
Y-196098D03*
Y-167198D03*
X85645Y-1174375D03*
X87797Y-1505002D03*
Y-1485003D03*
Y-1465004D03*
Y-1445005D03*
X88410Y-1003345D03*
X90489Y-1313960D03*
Y-1285054D03*
Y-1256154D03*
Y-1227254D03*
Y-1198354D03*
X93308Y-978872D03*
Y-949966D03*
Y-921066D03*
Y-892166D03*
Y-863266D03*
X93831Y-109448D03*
Y-90707D03*
X94787Y-586297D03*
Y-548797D03*
Y-511297D03*
Y-476797D03*
X94915Y-695673D03*
X96576Y-1088984D03*
X97613Y-1140602D03*
X100443Y-1037115D03*
X104385Y-1353929D03*
X105186Y-338700D03*
Y-304200D03*
X105213Y-282804D03*
Y-253898D03*
Y-224998D03*
Y-196098D03*
Y-167198D03*
Y-143221D03*
X108902Y-1335354D03*
X108995Y-1313958D03*
Y-1285052D03*
Y-1256152D03*
Y-1227252D03*
Y-1198352D03*
Y-1174375D03*
X111733Y-842366D03*
Y-807866D03*
X111760Y-1003345D03*
Y-979368D03*
Y-950468D03*
Y-921568D03*
Y-892668D03*
Y-863762D03*
X112094Y-695648D03*
Y-658148D03*
Y-620648D03*
X118287Y-1420477D03*
X118553Y-586297D03*
Y-548797D03*
Y-511297D03*
X119831Y-109448D03*
Y-90707D03*
X120796Y-77052D03*
X121159Y-58155D03*
X122576Y-1088984D03*
X123613Y-1140602D03*
X125495Y-1352180D03*
X126443Y-1037115D03*
X129517Y-34170D03*
X133636Y-338700D03*
Y-304200D03*
X133663Y-282804D03*
Y-253898D03*
Y-224998D03*
Y-196098D03*
Y-167198D03*
Y-143221D03*
X137352Y-1335354D03*
X137445Y-1313958D03*
Y-1285052D03*
Y-1256152D03*
Y-1227252D03*
Y-1198352D03*
Y-1174375D03*
X140043Y-1359472D03*
X140061Y-1088984D03*
X140183Y-842366D03*
Y-807866D03*
X140210Y-1003345D03*
Y-979368D03*
Y-950468D03*
Y-921568D03*
Y-892668D03*
Y-863762D03*
X142267Y-1387961D03*
X143594Y-695648D03*
Y-658148D03*
Y-620648D03*
X145507Y-9458D03*
X145831Y-109448D03*
Y-90707D03*
X146879Y-586523D03*
Y-561382D03*
X147296Y-77052D03*
X147659Y-58155D03*
X149613Y-1140602D03*
Y-1118831D03*
X152443Y-1067337D03*
Y-1037115D03*
X152787Y-1420477D03*
X154243Y-1088860D03*
X154930Y-167127D03*
Y-143150D03*
X156017Y-34170D03*
X158712Y-1198281D03*
Y-1174304D03*
X161477Y-1003416D03*
Y-979439D03*
X161851Y-552555D03*
X172007Y-9458D03*
X175094Y-658148D03*
Y-620648D03*
X176432Y-167127D03*
Y-143150D03*
Y-116705D03*
Y-90706D03*
X176767Y-1387961D03*
X177069Y16288D03*
X179176Y-1098985D03*
Y-1088985D03*
X180214Y-1198281D03*
Y-1174304D03*
Y-1147859D03*
Y-1121860D03*
X182979Y-1055860D03*
Y-1029861D03*
Y-1003416D03*
Y-979439D03*
X183389Y-553048D03*
X184430Y-75917D03*
Y-49417D03*
X187287Y-1420477D03*
X195787Y-30679D03*
X196293Y-63096D03*
X197032Y-1107062D03*
Y-1075930D03*
X203569Y16288D03*
Y42788D03*
X204306Y-167127D03*
Y-143150D03*
Y-116705D03*
Y-90706D03*
X204381Y-551290D03*
X210248Y-1387595D03*
Y-1361441D03*
Y-1331337D03*
Y-1291837D03*
Y-1252337D03*
Y-1212837D03*
Y-1173337D03*
Y-1133837D03*
Y-1094337D03*
Y-1054837D03*
Y-1015337D03*
Y-975837D03*
Y-936337D03*
Y-896837D03*
Y-857337D03*
Y-817837D03*
Y-778337D03*
Y-738837D03*
Y-699337D03*
Y-659837D03*
Y-620337D03*
X212822Y-47525D03*
Y-21025D03*
X218766Y-558974D03*
X218812Y-577836D03*
X220768Y-1420111D03*
X230069Y16288D03*
Y42788D03*
X233556Y-44491D03*
Y-17991D03*
X233831Y-594476D03*
X243282Y-1410337D03*
Y-1370837D03*
Y-1331337D03*
Y-1291837D03*
Y-1252337D03*
Y-1212837D03*
Y-1173337D03*
Y-1133837D03*
Y-1094337D03*
Y-1054837D03*
Y-1015337D03*
Y-975837D03*
Y-936337D03*
Y-896837D03*
Y-857337D03*
Y-817837D03*
Y-778337D03*
Y-738837D03*
Y-699337D03*
Y-659837D03*
Y-620337D03*
X256569Y16288D03*
Y42788D03*
X260056Y-44491D03*
Y-17991D03*
X283069Y16288D03*
Y42788D03*
X286556Y-44491D03*
Y-17991D03*
X309569Y16288D03*
Y42788D03*
X313056Y-44491D03*
Y-17991D03*
X336069Y16288D03*
Y42788D03*
X339556Y-44491D03*
Y-17991D03*
X358973Y38593D03*
X359126Y19514D03*
X366056Y-44491D03*
Y-17991D03*
X368871Y58456D03*
X372600Y80384D03*
Y106884D03*
Y133384D03*
Y159884D03*
Y186384D03*
X385473Y38593D03*
X387657Y-31530D03*
Y-5030D03*
X395371Y58456D03*
X399100Y80384D03*
Y106884D03*
Y133384D03*
Y159884D03*
Y186384D03*
X408432Y10557D03*
X414157Y-31530D03*
Y-5030D03*
X428265Y13283D03*
Y35561D03*
X430260Y54044D03*
Y80544D03*
Y107044D03*
Y133544D03*
Y160044D03*
Y186544D03*
X454765Y13283D03*
Y35561D03*
X456760Y54044D03*
Y80544D03*
Y107044D03*
Y133544D03*
Y160044D03*
Y186544D03*
M02*

