;           Gerber:: Drill Report             
;           =====================             
;    Unit                   : metric
;    Format                 : 3.4, Leading Zeros Suppressed
;    Co-ordinate data Mode  : Absolute Data mode
;+----------------------------------------+
;|  D R I L L   T O O L S   T A B L E     |
;+----------------------------------------+
;|    Drill    |    Tool    |    Drill    |
;|    Tool     |    Size    |    Count    |
;+----------------------------------------+
;|          T01|    0.300000|          729|
;+----------------------------------------+

M48

METRIC,LZ,000.0000
T01C0.300000
%
M71
G90
T01
X-0553165Y0055401
Y0081901
Y0108401
Y0134901
Y0161401
Y0187901
X-055117Y001464
Y0036918
X-0526665Y0055401
Y0081901
Y0108401
Y0134901
Y0161401
Y0187901
X-052467Y001464
Y0036918
X-0510562Y-0030173
Y-0003673
X-0504837Y0011914
X-0495505Y0081741
Y0108241
Y0134741
Y0161241
Y0187741
X-0491776Y0059813
X-0484062Y-0030173
Y-0003673
X-0481878Y003995
X-0469005Y0081741
Y0108241
Y0134741
Y0161241
Y0187741
X-0465276Y0059813
X-0462461Y-0043134
Y-0016634
X-0455531Y0020871
X-0455378Y003995
X-0435961Y-0043134
Y-0016634
X-0432474Y0017645
Y0044145
X-0409461Y-0043134
Y-0016634
X-0405974Y0017645
Y0044145
X-0382961Y-0043134
Y-0016634
X-0379474Y0017645
Y0044145
X-0356461Y-0043134
Y-0016634
X-0352974Y0017645
Y0044145
X-0329961Y-0043134
Y-0016634
X-0326474Y0017645
Y0044145
X-0303461Y-0043134
Y-0016634
X-0299974Y0017645
Y0044145
X-0276961Y-0043134
Y-0016634
X-0273474Y0017645
Y0044145
X-0250461Y-0043134
Y-0016634
X-0246974Y0017645
Y0044145
X-0224475Y-00849
X-0223961Y-0043134
Y-0016634
X-0220474Y0017645
Y0044145
X-0210156Y-0069669
X-0204856Y-0167269
Y-014378
Y-0117335
X-0204305Y-0094911
X-0201074Y-1198423
Y-1174934
Y-1148489
Y-112249
X-0198311Y-105523
Y-1029231
Y-1002786
Y-0979297
X-0194257Y-0043323
X-0193974Y0017645
Y0044145
X-0184258Y-1103524
Y-10753
X-0184135Y-00849
X-0183656Y-0069669
X-0176406Y-0167269
Y-014378
Y-0117335
Y-0099041
X-0175621Y0005255
X-0172624Y-1198423
Y-1174934
Y-1148489
Y-112249
X-0169861Y-105523
Y-1029231
Y-1002786
Y-0979297
X-0167741Y-1088859
X-0164732Y-0009708
X-0155181Y-0167198
Y-0143709
X-0151399Y-1198352
Y-1174863
X-0149121Y0005255
X-0148636Y-1002857
Y-0979368
X-0145805Y-0109448
Y-0090707
X-0145713Y-048693
X-01452Y-0064218
Y-0037718
X-014306Y-1098984
Y-1088984
X-0142023Y-1140602
Y-1118831
X-0139193Y-1067337
Y-1037115
X-0138232Y-0009708
X-0133709Y-0678191
Y-0643409
X-0133637Y-0282804
Y-0253898
Y-0224998
Y-0196098
Y-0167198
Y-0143709
X-0133529Y-050843
Y-0469297
Y-0436297
X-0133517Y-03372
Y-03042
X-0129855Y-1313958
Y-1285052
Y-1256152
Y-1227252
Y-1198352
Y-1174863
X-0129735Y-1335354
X-0127092Y-1002857
Y-0979368
Y-0950468
Y-0921568
Y-0892668
Y-0863762
X-0126972Y-0842366
Y-0809366
X-0124366Y-06616
X-0119805Y-0109448
Y-0090707
X-01187Y-0064218
Y-0037718
X-011706Y-1088984
X-0116023Y-1140602
X-0113193Y-1037115
X-0105187Y-0282804
Y-0253898
Y-0224998
Y-0196098
Y-0167198
Y-0143709
X-0105079Y-050843
Y-0469297
Y-0436297
X-0105067Y-03372
Y-03042
X-0102762Y-0678191
Y-0643409
X-0101405Y-1313958
Y-1285052
Y-1256152
Y-1227252
Y-1198352
Y-1174863
X-0101285Y-1335354
X-0098642Y-1002857
Y-0979368
Y-0950468
Y-0921568
Y-0892668
Y-0863762
X-0098522Y-0842366
Y-0809366
X-0093805Y-0109448
Y-0090707
X-009106Y-1088984
X-0090023Y-1140602
X-0087193Y-1037115
X-0084287Y-0282804
Y-0253898
Y-0224998
Y-0196098
Y-0167198
X-0081837Y-0143709
X-0081195Y-1505002
Y-1485003
Y-1465004
Y-1445005
Y-1425006
X-0078111Y-131396
Y-1285054
Y-1256154
Y-1227254
Y-1198354
X-0078055Y-1174863
X-0075292Y-0978872
Y-0949966
Y-0921066
Y-0892166
Y-0863266
X-007529Y-1002857
X-0074132Y-0548264
Y-050843
Y-0469297
Y-0436297
X-007412Y-03372
Y-03042
X-0071815Y-0678191
Y-0643409
X-0070338Y-1335354
X-0067805Y-0109448
Y-0090707
X-0067573Y-0842366
Y-0809366
X-0066149Y-0529004
X-006506Y-1088984
X-0064023Y-1140602
X-0061193Y-1037115
X-0060112Y-1505002
Y-1485003
Y-1465004
Y-1445005
Y-1425006
X-0058356Y-0619245
Y-0594004
Y-0568797
X-0055837Y-0282804
Y-0253898
Y-0224998
Y-0196098
Y-0167198
Y-0143709
X-0052055Y-1174863
X-0049661Y-131396
Y-1285054
Y-1256154
Y-1227254
Y-1198354
X-004929Y-1002857
X-0046842Y-0978872
Y-0949966
Y-0921066
Y-0892166
Y-0863266
X-0045682Y-0548264
Y-050843
Y-0469297
Y-0436297
Y-0403297
Y-0370297
X-004567Y-03372
Y-03042
X-0041888Y-1393166
Y-136426
Y-1335354
X-0041805Y-0109448
Y-0090707
X-0040868Y-0678191
Y-0643409
X-0040265Y-0776366
Y-0743366
Y-0710366
X-0039942Y-1434994
X-0039123Y-0842366
Y-0809366
X-003906Y-1088984
X-0038023Y-1140602
X-0035193Y-1037115
X-0033937Y-0143709
X-0031195Y-1413512
X-0030155Y-1174863
X-0028512Y-0619245
Y-0594004
X-002739Y-1002857
X-0025993Y-0282804
Y-0253898
Y-0196098
Y-0167198
X-0022343Y-0568797
X-0019817Y-131396
Y-1285054
Y-1227254
Y-1198354
X-0019772Y-1505002
Y-1485003
Y-1465004
Y-1445005
X-0016998Y-0978872
Y-0949966
Y-0892166
Y-0863266
X-0015838Y-0548264
Y-050843
Y-0469297
Y-0436297
Y-0403297
Y-0370297
X-0015826Y-03372
Y-03042
X-0015805Y-0109448
Y-0090707
X-001306Y-1088984
X-0012581Y-1422072
Y-1393166
Y-136426
Y-1335354
X-0012418Y-0678191
Y-0643409
X-0012023Y-1140602
X-0010421Y-0776366
Y-0743366
Y-0710366
X-0009279Y-0842366
Y-0809366
X-0009193Y-1037115
X0000007Y-0282804
Y-0253898
Y-0196098
Y-0159749
X0000013Y-0123749
Y-0100629
X000274Y-1088984
X0003789Y-1190903
X0003795Y-1154901
X0006183Y-131396
Y-1285054
Y-1227254
X0006558Y-1022816
Y-0986816
X0007537Y-0601447
X0009002Y-0949966
Y-0892166
Y-0863266
X0012785Y-0574017
X0015787Y-0511297
Y-0476797
Y-0442297
Y-0407797
Y-0373297
X0015799Y-03387
Y-03042
X0015831Y-0109448
Y-0090707
X0017602Y-0546632
X0018576Y-1088984
X0019581Y-1335354
X0019613Y-1140602
X0021103Y-1420477
X0021756Y-1372906
X0022346Y-0842366
Y-0807866
Y-0773366
Y-0738866
Y-0704366
X0022443Y-1037115
X0023298Y-0671766
Y-0637266
X0026007Y-0282804
Y-0253898
Y-0196098
Y-0167198
X0026288Y-1505002
Y-1485003
Y-1465004
Y-1445005
X0032183Y-131396
Y-1285054
Y-1227254
Y-1198354
X0033963Y-0143221
X0034564Y-0601447
X0035002Y-0978872
Y-0949966
Y-0892166
Y-0863266
X0036558Y-136328
X0037533Y-0574017
X0037745Y-1174375
X0039894Y-0546632
X004051Y-1003345
X0041831Y-0109448
Y-0090707
X0043214Y-0511297
Y-0476797
Y-0442297
Y-0407797
Y-0373297
X0043226Y-03387
Y-03042
X0044576Y-1088984
X0045613Y-1140602
X0046458Y-1434994
Y-1417669
X0047008Y-1335354
X0048443Y-1037115
X0049773Y-0842366
Y-0807866
Y-0773366
Y-0738866
Y-0704366
X0050443Y-0671766
Y-0637266
X0055863Y-0282804
Y-0253898
Y-0224998
Y-0196098
Y-0167198
Y-0143221
X0059645Y-1174375
X0061777Y-1379345
Y-1351262
X0061993Y-0601447
Y-0574017
X0062039Y-131396
Y-1285054
Y-1256154
Y-1227254
Y-1198354
X0062062Y-0546632
X006241Y-1003345
X0064858Y-0978872
Y-0949966
Y-0921066
Y-0892166
Y-0863266
X0066628Y-1505002
Y-1485003
Y-1465004
Y-1445005
Y-1425006
X0067831Y-0109448
Y-0090707
X0068808Y-0511297
Y-0476797
X0070576Y-1088984
X0071613Y-1140602
X0074173Y-03387
Y-03042
X0074443Y-1037115
X0077432Y-0695648
X0077518Y-0666343
Y-0637266
X0077955Y-1335354
X008072Y-0842366
Y-0807866
X0081863Y-0143221
X0082847Y-1353436
X0083787Y-1420477
X0084313Y-0282804
Y-0253898
Y-0224998
Y-0196098
Y-0167198
X0085645Y-1174375
X0087797Y-1505002
Y-1485003
Y-1465004
Y-1445005
X008841Y-1003345
X0090489Y-131396
Y-1285054
Y-1256154
Y-1227254
Y-1198354
X0093308Y-0978872
Y-0949966
Y-0921066
Y-0892166
Y-0863266
X0093831Y-0109448
Y-0090707
X0094787Y-0586297
Y-0548797
Y-0511297
Y-0476797
X0094915Y-0695673
X0096576Y-1088984
X0097613Y-1140602
X0100443Y-1037115
X0104385Y-1353929
X0105186Y-03387
Y-03042
X0105213Y-0282804
Y-0253898
Y-0224998
Y-0196098
Y-0167198
Y-0143221
X0108902Y-1335354
X0108995Y-1313958
Y-1285052
Y-1256152
Y-1227252
Y-1198352
Y-1174375
X0111733Y-0842366
Y-0807866
X011176Y-1003345
Y-0979368
Y-0950468
Y-0921568
Y-0892668
Y-0863762
X0112094Y-0695648
Y-0658148
Y-0620648
X0118287Y-1420477
X0118553Y-0586297
Y-0548797
Y-0511297
X0119831Y-0109448
Y-0090707
X0120796Y-0077052
X0121159Y-0058155
X0122576Y-1088984
X0123613Y-1140602
X0125495Y-135218
X0126443Y-1037115
X0129517Y-003417
X0133636Y-03387
Y-03042
X0133663Y-0282804
Y-0253898
Y-0224998
Y-0196098
Y-0167198
Y-0143221
X0137352Y-1335354
X0137445Y-1313958
Y-1285052
Y-1256152
Y-1227252
Y-1198352
Y-1174375
X0140043Y-1359472
X0140061Y-1088984
X0140183Y-0842366
Y-0807866
X014021Y-1003345
Y-0979368
Y-0950468
Y-0921568
Y-0892668
Y-0863762
X0142267Y-1387961
X0143594Y-0695648
Y-0658148
Y-0620648
X0145507Y-0009458
X0145831Y-0109448
Y-0090707
X0146879Y-0586523
Y-0561382
X0147296Y-0077052
X0147659Y-0058155
X0149613Y-1140602
Y-1118831
X0152443Y-1067337
Y-1037115
X0152787Y-1420477
X0154243Y-108886
X015493Y-0167127
Y-014315
X0156017Y-003417
X0158712Y-1198281
Y-1174304
X0161477Y-1003416
Y-0979439
X0161851Y-0552555
X0172007Y-0009458
X0175094Y-0658148
Y-0620648
X0176432Y-0167127
Y-014315
Y-0116705
Y-0090706
X0176767Y-1387961
X0177069Y0016288
X0179176Y-1098985
Y-1088985
X0180214Y-1198281
Y-1174304
Y-1147859
Y-112186
X0182979Y-105586
Y-1029861
Y-1003416
Y-0979439
X0183389Y-0553048
X018443Y-0075917
Y-0049417
X0187287Y-1420477
X0195787Y-0030679
X0196293Y-0063096
X0197032Y-1107062
Y-107593
X0203569Y0016288
Y0042788
X0204306Y-0167127
Y-014315
Y-0116705
Y-0090706
X0204381Y-055129
X0210248Y-1387595
Y-1361441
Y-1331337
Y-1291837
Y-1252337
Y-1212837
Y-1173337
Y-1133837
Y-1094337
Y-1054837
Y-1015337
Y-0975837
Y-0936337
Y-0896837
Y-0857337
Y-0817837
Y-0778337
Y-0738837
Y-0699337
Y-0659837
Y-0620337
X0212822Y-0047525
Y-0021025
X0218766Y-0558974
X0218812Y-0577836
X0220768Y-1420111
X0230069Y0016288
Y0042788
X0233556Y-0044491
Y-0017991
X0233831Y-0594476
X0243282Y-1410337
Y-1370837
Y-1331337
Y-1291837
Y-1252337
Y-1212837
Y-1173337
Y-1133837
Y-1094337
Y-1054837
Y-1015337
Y-0975837
Y-0936337
Y-0896837
Y-0857337
Y-0817837
Y-0778337
Y-0738837
Y-0699337
Y-0659837
Y-0620337
X0256569Y0016288
Y0042788
X0260056Y-0044491
Y-0017991
X0283069Y0016288
Y0042788
X0286556Y-0044491
Y-0017991
X0309569Y0016288
Y0042788
X0313056Y-0044491
Y-0017991
X0336069Y0016288
Y0042788
X0339556Y-0044491
Y-0017991
X0358973Y0038593
X0359126Y0019514
X0366056Y-0044491
Y-0017991
X0368871Y0058456
X03726Y0080384
Y0106884
Y0133384
Y0159884
Y0186384
X0385473Y0038593
X0387657Y-003153
Y-000503
X0395371Y0058456
X03991Y0080384
Y0106884
Y0133384
Y0159884
Y0186384
X0408432Y0010557
X0414157Y-003153
Y-000503
X0428265Y0013283
Y0035561
X043026Y0054044
Y0080544
Y0107044
Y0133544
Y0160044
Y0186544
X0454765Y0013283
Y0035561
X045676Y0054044
Y0080544
Y0107044
Y0133544
Y0160044
Y0186544

M30
